<?xml version="1.0" encoding="UTF-8"?>
<svg id="Layer_1" data-name="Layer 1" xmlns="http://www.w3.org/2000/svg" xmlns:xlink="http://www.w3.org/1999/xlink" viewBox="0 0 1358.33 525">
  <defs>
    <style>
      .cls-1 {
        fill: url(#linear-gradient-2);
      }

      .cls-2 {
        fill: #5d7694;
      }

      .cls-3 {
        fill: #0d3059;
      }

      .cls-4 {
        fill: #c39e50;
      }

      .cls-5 {
        fill: url(#linear-gradient-4);
      }

      .cls-6 {
        fill: url(#linear-gradient-3);
      }

      .cls-7 {
        fill: none;
        stroke: #c39e50;
        stroke-miterlimit: 10;
        stroke-width: 2.97px;
      }

      .cls-8 {
        fill: url(#linear-gradient);
      }
    </style>
    <linearGradient id="linear-gradient" x1="710.19" y1="-2297.37" x2="710.19" y2="-2552.72" gradientTransform="translate(0 -2230) scale(1 -1)" gradientUnits="userSpaceOnUse">
      <stop offset="0" stop-color="#bb9039"/>
      <stop offset=".51" stop-color="#f7e89a"/>
      <stop offset="1" stop-color="#b38730"/>
    </linearGradient>
    <linearGradient id="linear-gradient-2" x1="731.46" y1="-2296.9" x2="731.46" y2="-2552.16" gradientTransform="translate(0 -2230) scale(1 -1)" gradientUnits="userSpaceOnUse">
      <stop offset="0" stop-color="#bb9039"/>
      <stop offset=".51" stop-color="#d2b05b"/>
      <stop offset="1" stop-color="#d2b05b"/>
    </linearGradient>
    <linearGradient id="linear-gradient-3" x1="664.56" y1="-2359.85" x2="664.56" y2="-2552.19" xlink:href="#linear-gradient"/>
    <linearGradient id="linear-gradient-4" x1="787.37" y1="-2334.43" x2="787.37" y2="-2551.85" gradientTransform="translate(0 -2230) scale(1 -1)" gradientUnits="userSpaceOnUse">
      <stop offset="0" stop-color="#c3a151"/>
      <stop offset=".26" stop-color="#e8d47b"/>
      <stop offset="1" stop-color="#ead685"/>
    </linearGradient>
  </defs>
  <line class="cls-7" x1="917.86" y1="369.34" x2="1317.95" y2="369.34"/>
  <line class="cls-7" x1="57.19" y1="372.21" x2="510.85" y2="372.21"/>
  <g>
    <path class="cls-3" d="M104.09,169.66h-18.36v61.94h45.79v10.84h-45.79v70.12h69.46v10.84H57.2v-164.8h98.44v11.06h-51.54Z"/>
    <path class="cls-3" d="M275.31,247.31c5.53,3.98,11.95,10.18,19.47,20.13,0,0,11.94,16.15,28.09,56.19h-24.33c-2.21-9.29-24.55-75.65-66.14-75.65l-3.98-.22v75.87h-28.09v-164.8h37.38c15.04,0,27.43.88,37.16,3.76s17.92,6.86,24.11,13.71,9.29,15.04,9.29,24.55c0,11.06-3.98,20.57-12.17,28.31-6.42,6.19-15.26,11.5-26.54,14.16,1.77,1.11,3.76,2.21,5.75,3.98ZM235.49,170.99l-7.08-.22v66.36h15.71c2.65,0,5.31-.66,7.96-1.33,2.65-.66,5.09-1.55,7.3-2.21,3.76-1.11,7.08-3.76,9.95-6.42,2.43-2.43,4.42-5.31,5.97-9.29,1.33-3.98,2.21-8.85,2.21-14.82,0-10.62-2.65-18.36-7.74-24.33-4.42-5.53-15.71-7.74-34.29-7.74Z"/>
    <path class="cls-3" d="M378.17,323.62v-164.8h28.31v164.8h-28.31Z"/>
    <path class="cls-3" d="M481.69,301.72c-14.6-14.82-21.9-34.07-21.9-57.74,0-15.71,3.32-30.31,10.18-44.02,6.64-13.94,16.15-24.33,28.31-31.19,11.95-6.64,25.22-9.96,39.6-9.96,11.72,0,22.56,2.43,32.3,7.3,9.29,4.65,16.59,9.96,21.9,16.37l.66,3.1-7.96,7.52c-4.2-6.19-6.86-9.29-9.95-11.5-9.95-7.74-21.24-11.5-33.62-11.5-15.26,0-27.21,5.97-36.28,18.36-8.85,12.39-13.49,30.53-13.49,54.42s5.09,39.6,14.82,51.32c9.73,11.5,21.9,17.25,36.5,17.25,7.74,0,15.71-1.77,24.11-5.75,6.42-2.88,11.72-7.74,18.14-17.03l8.63,8.85c-15.71,17.7-33.62,26.1-55.52,26.1s-41.59-7.3-56.41-21.9Z"/>
  </g>
  <g>
    <path class="cls-8" d="M700.64,88.01v233.4l.48.45h17.68l.96-.9V66.5l-19.11,21.5Z"/>
    <path class="cls-1" d="M725.01,61.13v260.27l.96.45h11.47l.48-.45V49.48l-12.9,11.65Z"/>
    <path class="cls-6" d="M658.11,159.86v156.73c0,1.43-.48,1.91-1.43,2.39-2.39.96-16.72,1.43-16.72,1.43v1.43h48.26l.96-.96-.48-192.09h-1.43l-29.15,31.06Z"/>
    <path class="cls-5" d="M794.77,143.62l-34.4-39.18v214.55l-4.3,1.43v1.43h62.6v-1.43l-20.55-1.43-2.87-1.43-.48-173.93Z"/>
  </g>
  <g>
    <path class="cls-3" d="M1018.43,324.73h-39.38l-25.44-27.43,4.65-1.77c-7.3-.44-9.95-3.32-13.05-6.42l-43.58-43.58-7.96,7.52v71.67h-28.54v-164.8h28.54v77.86l42.25-38.71c0-.44.44-1.11.88-1.55l41.81-37.6h15.71l-34.51,32.3c-2.88,2.65-5.75,5.75-9.51,9.07l-3.54,3.98-24.11,21.9,57.29,58.4c1.33,1.33,3.32,2.66,4.64,3.98l-4.87,1.99c4.65,1.11,5.09,1.55,5.09,1.55l-.44-3.1c.44.44.66.88.88,1.33l33.18,33.4Z"/>
    <path class="cls-3" d="M1064.22,324.73v-164.8h28.31v164.8h-28.31Z"/>
    <path class="cls-3" d="M1289.41,324.73v-133.83l-59.06,133.83h-9.07l-58.62-133.83v133.83h-10.84v-164.8h26.54l56.63,127.86,56.41-127.86h26.54v164.8h-28.54Z"/>
  </g>
  <g>
    <path class="cls-4" d="M608.43,379.93c1.36.98,2.94,2.51,4.8,4.96,0,0,2.94,3.98,6.92,13.85h-6c-.55-2.29-6.05-18.65-16.3-18.65l-.98-.05v18.7h-6.92v-40.62h9.21c3.71,0,6.76.22,9.16.93,2.4.71,4.42,1.69,5.94,3.38,1.53,1.69,2.29,3.71,2.29,6.05,0,2.73-.98,5.07-3,6.98-1.58,1.53-3.76,2.83-6.54,3.49.44.27.93.54,1.42.98ZM598.62,361.12l-1.74-.05v16.36h3.87c.65,0,1.31-.16,1.96-.33s1.25-.38,1.8-.54c.93-.27,1.74-.93,2.45-1.58.6-.6,1.09-1.31,1.47-2.29.33-.98.54-2.18.54-3.65,0-2.62-.65-4.52-1.91-6-1.09-1.36-3.87-1.91-8.45-1.91Z"/>
    <path class="cls-4" d="M653.58,360.79h-4.52v15.27h11.29v2.67h-11.29v17.28h17.12v2.67h-24.15v-40.62h24.26v2.73h-12.7Z"/>
    <path class="cls-4" d="M713.5,398.74c-2.24-5.56-3.11-7.63-3.11-7.63l-2.83-6.82h-13.47l-5.56,14.45h-3.49l16.79-40.62h2.02l17.23,40.62h-7.58ZM700.68,367.61l-5.67,14.07h11.5l-5.83-14.07Z"/>
    <path class="cls-4" d="M741.63,398.74v-40.62h6.98v37.89h21.64v2.73h-28.62Z"/>
    <path class="cls-4" d="M802.69,360.79h-5.78v37.95h-6.98v-37.95h-16.25l.11-2.67h39.47l.05,2.67h-10.63Z"/>
    <path class="cls-4" d="M853.78,382.65v16.08h-6.98v-15.7l-15.54-24.92h8.72l12.38,21.37,12.32-21.37h3.98l-14.88,24.53Z"/>
  </g>
  <g>
    <path class="cls-2" d="M133.26,446.68h11.38c6.55,0,10.34,3.69,10.34,9.42,0,3.94-1.82,6.8-5.1,8.21l6.13,11.21h-6.73l-5.46-10.22h-4.45v10.22h-6.1v-28.84ZM143.5,460.39c3.49,0,5.2-1.44,5.2-4.3s-1.7-4.44-5.23-4.44h-4.11v8.73h4.14Z"/>
    <path class="cls-2" d="M168.72,446.68h19.44v5.03h-13.34v6.87h12.34v5.03h-12.34v6.89h13.39v5.03h-19.49v-28.84Z"/>
    <path class="cls-2" d="M213.16,451.38c-2.99,0-4.63,1.37-4.63,3.23-.04,2.07,2.06,3,4.56,3.58l2.59.62c5.01,1.13,8.63,3.68,8.65,8.48-.01,5.28-4.15,8.65-11.2,8.65s-11.46-3.22-11.62-9.46h5.9c.2,2.89,2.48,4.35,5.65,4.35s5.1-1.44,5.11-3.55c-.01-1.94-1.76-2.84-4.9-3.61l-3.14-.79c-4.87-1.17-7.87-3.61-7.86-7.86-.03-5.24,4.61-8.73,10.93-8.73s10.65,3.55,10.73,8.69h-5.84c-.23-2.27-2.01-3.59-4.93-3.59Z"/>
    <path class="cls-2" d="M243.95,475.52h-6.1v-28.84h6.1v28.84Z"/>
    <path class="cls-2" d="M258.41,475.52v-28.84h10.31c8.7,0,14.03,5.41,14.03,14.39s-5.32,14.45-14.11,14.45h-10.23ZM268.38,470.29c5.42,0,8.28-2.79,8.28-9.22s-2.86-9.17-8.27-9.17h-3.89v18.39h3.87Z"/>
    <path class="cls-2" d="M296.68,446.68h19.44v5.03h-13.34v6.87h12.34v5.03h-12.34v6.89h13.39v5.03h-19.49v-28.84Z"/>
    <path class="cls-2" d="M354.53,475.52h-5.27l-12.55-18.15h-.21v18.15h-6.1v-28.84h5.35l12.45,18.14h.25v-18.14h6.07v28.84Z"/>
    <path class="cls-2" d="M367.89,446.68h23.69v5.03h-8.83v23.82h-6.03v-23.82h-8.83v-5.03Z"/>
    <path class="cls-2" d="M411.03,475.52h-6.1v-28.84h6.1v28.84Z"/>
    <path class="cls-2" d="M423.92,475.52l9.96-28.84h7.86l9.94,28.84h-6.54l-2.14-6.58h-10.41l-2.14,6.58h-6.53ZM441.47,464.18l-3.55-10.92h-.23l-3.55,10.92h7.32Z"/>
    <path class="cls-2" d="M464.58,446.68h6.1v23.82h12.37v5.03h-18.46v-28.84Z"/>
  </g>
  <g>
    <path class="cls-2" d="M979.58,446.68h11.38c6.55,0,10.34,4.04,10.34,9.77s-3.86,9.72-10.49,9.72h-5.13v9.35h-6.1v-28.84ZM989.82,461.28c3.49,0,5.2-1.97,5.2-4.83s-1.7-4.79-5.22-4.79h-4.11v9.62h4.14Z"/>
    <path class="cls-2" d="M1014.71,446.68h11.38c6.55,0,10.34,3.69,10.34,9.42,0,3.94-1.82,6.8-5.1,8.21l6.13,11.21h-6.73l-5.46-10.22h-4.45v10.22h-6.1v-28.84ZM1024.94,460.39c3.49,0,5.2-1.44,5.2-4.3s-1.7-4.44-5.22-4.44h-4.11v8.73h4.14Z"/>
    <path class="cls-2" d="M1050.16,446.68h19.44v5.03h-13.34v6.87h12.34v5.03h-12.34v6.89h13.39v5.03h-19.49v-28.84Z"/>
    <path class="cls-2" d="M1094.61,451.38c-2.99,0-4.63,1.37-4.63,3.23-.04,2.07,2.06,3,4.56,3.58l2.59.62c5.01,1.13,8.63,3.68,8.65,8.48-.01,5.28-4.16,8.65-11.2,8.65s-11.46-3.22-11.62-9.46h5.9c.2,2.89,2.48,4.35,5.65,4.35s5.1-1.44,5.11-3.55c-.01-1.94-1.76-2.84-4.9-3.61l-3.14-.79c-4.87-1.17-7.87-3.61-7.86-7.86-.03-5.24,4.61-8.73,10.93-8.73s10.65,3.55,10.73,8.69h-5.84c-.23-2.27-2.01-3.59-4.93-3.59Z"/>
    <path class="cls-2" d="M1117.05,475.52l9.96-28.84h7.86l9.94,28.84h-6.54l-2.14-6.58h-10.41l-2.14,6.58h-6.54ZM1134.6,464.18l-3.55-10.92h-.23l-3.55,10.92h7.32Z"/>
    <path class="cls-2" d="M1157.7,446.68h6.1v23.82h12.37v5.03h-18.46v-28.84Z"/>
    <path class="cls-2" d="M1189.64,446.68h19.44v5.03h-13.34v6.87h12.34v5.03h-12.34v6.89h13.39v5.03h-19.49v-28.84Z"/>
  </g>
  <line class="cls-7" x1="522.68" y1="471.49" x2="522.68" y2="440.28"/>
  <g>
    <path class="cls-2" d="M570.01,453.15c-.46-3.17-2.87-5.1-6.21-5.1-4.46,0-7.39,3.42-7.39,9.42s2.97,9.42,7.35,9.42c3.25,0,5.68-1.77,6.25-4.86l6.17.03c-.66,5.31-5.13,10.22-12.52,10.22s-13.44-5.41-13.44-14.82,5.82-14.82,13.44-14.82c6.68,0,11.72,3.83,12.52,10.49h-6.17Z"/>
    <path class="cls-2" d="M602.99,472.29c-7.69,0-13.51-5.42-13.51-14.82s5.82-14.82,13.51-14.82,13.51,5.38,13.51,14.82-5.86,14.82-13.51,14.82ZM602.99,448.05c-4.44,0-7.32,3.31-7.32,9.42s2.89,9.42,7.32,9.42,7.32-3.31,7.32-9.42-2.9-9.42-7.32-9.42Z"/>
    <path class="cls-2" d="M637.95,443.05l7.94,19.38h.34l7.94-19.38h7.52v28.84h-5.92v-18.77h-.24l-7.46,18.63h-4.03l-7.46-18.7h-.24v18.84h-5.92v-28.84h7.52Z"/>
    <path class="cls-2" d="M683.66,443.05l7.94,19.38h.34l7.94-19.38h7.52v28.84h-5.92v-18.77h-.24l-7.46,18.63h-4.03l-7.46-18.7h-.24v18.84h-5.92v-28.84h7.52Z"/>
    <path class="cls-2" d="M721.84,443.05h19.44v5.03h-13.34v6.87h12.34v5.03h-12.34v6.89h13.39v5.03h-19.49v-28.84Z"/>
    <path class="cls-2" d="M755.57,443.05h11.38c6.55,0,10.34,3.69,10.34,9.42,0,3.94-1.82,6.8-5.1,8.21l6.13,11.21h-6.73l-5.46-10.22h-4.45v10.22h-6.1v-28.84ZM765.81,456.77c3.49,0,5.2-1.44,5.2-4.3s-1.7-4.44-5.22-4.44h-4.11v8.73h4.14Z"/>
    <path class="cls-2" d="M810.31,453.15c-.46-3.17-2.87-5.1-6.21-5.1-4.46,0-7.39,3.42-7.39,9.42s2.97,9.42,7.35,9.42c3.25,0,5.68-1.77,6.25-4.86l6.17.03c-.66,5.31-5.13,10.22-12.52,10.22s-13.44-5.41-13.44-14.82,5.82-14.82,13.44-14.82c6.68,0,11.72,3.83,12.52,10.49h-6.17Z"/>
    <path class="cls-2" d="M836.39,471.89h-6.1v-28.84h6.1v28.84Z"/>
    <path class="cls-2" d="M849.28,471.89l9.96-28.84h7.86l9.94,28.84h-6.54l-2.14-6.58h-10.41l-2.14,6.58h-6.54ZM866.83,460.56l-3.55-10.92h-.23l-3.55,10.92h7.32Z"/>
    <path class="cls-2" d="M889.94,443.05h6.1v23.82h12.37v5.03h-18.46v-28.84Z"/>
  </g>
  <line class="cls-7" x1="935.93" y1="471.49" x2="935.93" y2="440.28"/>
</svg>